<svg width="208" height="138" viewBox="0 0 208 138" fill="none" xmlns="http://www.w3.org/2000/svg">
<path d="M104.003 0L69.4033 20V60L104.003 80L138.603 60V20L104.003 0ZM132.837 56.666L104.003 73.334L75.1693 56.666V23.334L104.003 6.666L132.837 23.332V56.666Z" fill="white"/>
<path d="M80.9336 26.6823V53.3183L86.6996 56.5743V43.3123L104 33.3463V13.3643L80.9336 26.6823ZM86.7056 36.7343V30.0163L98.2336 23.3583V30.0183L86.7056 36.7343Z" fill="#D1363A"/>
<path d="M109.764 16.6943V36.7523L109.732 36.7343L92.4639 46.6863V59.9703L98.2319 63.3063V50.0363L115.532 40.0483V20.0243L109.764 16.6943Z" fill="white"/>
<path d="M103.999 66.6355L127.065 53.3175V26.6855L121.299 23.3555V50.0215L103.993 59.9695L103.999 66.6355Z" fill="white"/>
<path d="M2.88 98H15.4C18.2 98 20.6 98.4933 22.6 99.48C24.6267 100.467 26.1733 101.853 27.24 103.64C28.3067 105.427 28.84 107.52 28.84 109.92C28.84 112.347 28.3067 114.467 27.24 116.28C26.1733 118.067 24.6267 119.453 22.6 120.44C20.6 121.427 18.2 121.92 15.4 121.92H10.16V130.6H2.88V98ZM15.08 115.48C17.1333 115.48 18.72 115 19.84 114.04C20.9867 113.08 21.56 111.707 21.56 109.92C21.56 108.133 20.9867 106.773 19.84 105.84C18.72 104.907 17.1333 104.44 15.08 104.44H10.16V115.48H15.08ZM36.1228 95.84C37.3761 95.84 38.4161 96.2533 39.2428 97.08C40.0695 97.9067 40.4828 98.9467 40.4828 100.2C40.4828 101.453 40.0695 102.493 39.2428 103.32C38.4161 104.147 37.3761 104.56 36.1228 104.56C34.8695 104.56 33.8295 104.147 33.0028 103.32C32.1761 102.493 31.7628 101.453 31.7628 100.2C31.7628 98.9467 32.1761 97.9067 33.0028 97.08C33.8295 96.2533 34.8695 95.84 36.1228 95.84ZM39.6828 130.68H32.5628V107.16H39.6828V130.68ZM67.9438 122.16C67.3304 124.88 65.9704 127.053 63.8638 128.68C61.7571 130.333 59.2238 131.16 56.2638 131.16C53.8904 131.16 51.7571 130.627 49.8638 129.56C47.9704 128.52 46.4904 127.067 45.4238 125.2C44.3571 123.333 43.8238 121.227 43.8238 118.88C43.8238 116.533 44.3571 114.427 45.4238 112.56C46.4904 110.693 47.9704 109.24 49.8638 108.2C51.7571 107.133 53.8904 106.6 56.2638 106.6C58.2638 106.6 60.0904 107 61.7438 107.8C63.3971 108.573 64.7571 109.64 65.8238 111C66.8904 112.36 67.5571 113.867 67.8238 115.52H60.6238C60.3304 114.693 59.7971 114.04 59.0238 113.56C58.2771 113.053 57.3571 112.8 56.2638 112.8C54.6104 112.8 53.2771 113.373 52.2638 114.52C51.2771 115.64 50.7838 117.093 50.7838 118.88C50.7838 120.667 51.2771 122.133 52.2638 123.28C53.2771 124.4 54.6104 124.96 56.2638 124.96C57.3571 124.96 58.2904 124.707 59.0638 124.2C59.8638 123.693 60.4238 123.013 60.7438 122.16H67.9438ZM81.7416 122L78.9016 125.2V130.6H71.7816V97H78.9016V116.72L87.1816 107.16H95.1016L86.1016 117.16L95.5816 130.6H87.4616L81.7416 122ZM125.793 98V124.16H142.073V130.6H118.513V98H125.793ZM161.235 131.4C157.902 131.4 154.889 130.653 152.195 129.16C149.529 127.693 147.435 125.667 145.915 123.08C144.395 120.467 143.635 117.533 143.635 114.28C143.635 111.027 144.395 108.107 145.915 105.52C147.435 102.907 149.529 100.867 152.195 99.4C154.889 97.9067 157.902 97.16 161.235 97.16C164.569 97.16 167.569 97.9067 170.235 99.4C172.929 100.867 175.035 102.907 176.555 105.52C178.075 108.107 178.835 111.027 178.835 114.28C178.835 117.533 178.075 120.467 176.555 123.08C175.035 125.667 172.929 127.693 170.235 129.16C167.569 130.653 164.569 131.4 161.235 131.4ZM161.235 124.84C163.182 124.84 164.942 124.387 166.515 123.48C168.089 122.573 169.315 121.32 170.195 119.72C171.102 118.093 171.555 116.28 171.555 114.28C171.555 112.253 171.102 110.44 170.195 108.84C169.315 107.24 168.089 105.987 166.515 105.08C164.942 104.173 163.182 103.72 161.235 103.72C159.289 103.72 157.529 104.173 155.955 105.08C154.382 105.987 153.142 107.24 152.235 108.84C151.355 110.44 150.915 112.253 150.915 114.28C150.915 116.28 151.355 118.093 152.235 119.72C153.142 121.32 154.382 122.573 155.955 123.48C157.529 124.387 159.289 124.84 161.235 124.84ZM190.441 98V124.16H206.721V130.6H183.161V98H190.441Z" fill="#D1363A"/>
<path d="M109.677 129.208L108.885 128.272C107.365 129.184 105.733 129.64 103.989 129.64C102.501 129.64 101.205 129.4 100.101 128.92C98.9973 128.44 98.1493 127.776 97.5573 126.928C96.9813 126.064 96.6933 125.072 96.6933 123.952C96.6933 122.704 97.0373 121.632 97.7253 120.736C98.4293 119.824 99.4053 119.04 100.653 118.384C100.109 117.664 99.6853 116.968 99.3813 116.296C99.0933 115.624 98.9492 114.92 98.9492 114.184C98.9492 113.192 99.2133 112.312 99.7413 111.544C100.285 110.76 101.029 110.152 101.973 109.72C102.917 109.288 103.965 109.072 105.117 109.072C106.285 109.072 107.317 109.28 108.213 109.696C109.125 110.096 109.829 110.664 110.325 111.4C110.837 112.136 111.093 112.968 111.093 113.896C111.093 115.128 110.717 116.184 109.965 117.064C109.213 117.944 108.165 118.736 106.821 119.44L109.341 122.416C109.757 121.536 110.037 120.608 110.181 119.632H114.021C113.813 121.808 113.101 123.744 111.885 125.44L115.053 129.208H109.677ZM105.141 112.12C104.581 112.12 104.109 112.304 103.725 112.672C103.357 113.04 103.173 113.504 103.173 114.064C103.173 114.496 103.285 114.912 103.509 115.312C103.733 115.696 104.077 116.176 104.541 116.752C105.309 116.4 105.901 116.016 106.317 115.6C106.749 115.168 106.965 114.664 106.965 114.088C106.965 113.512 106.789 113.04 106.437 112.672C106.101 112.304 105.669 112.12 105.141 112.12ZM104.277 126.184C105.093 126.184 105.877 125.976 106.629 125.56L102.981 121.216C102.309 121.568 101.805 121.944 101.469 122.344C101.149 122.728 100.989 123.192 100.989 123.736C100.989 124.456 101.285 125.048 101.877 125.512C102.469 125.96 103.269 126.184 104.277 126.184Z" fill="white"/>
</svg>
