<svg width="256" height="256" viewBox="0 0 256 256" fill="none" xmlns="http://www.w3.org/2000/svg">
<path d="M222.039 219.51H33.6734C31.001 219.51 28.6997 217.63 28.1686 215.012L1.52134 84.4196C1.07455 82.2334 1.96251 79.991 3.7862 78.7041C5.60708 77.4143 8.01806 77.33 9.92886 78.4821L81.8227 121.815L122.823 39.3191C123.765 37.4252 125.692 36.2169 127.808 36.2C129.801 36.1916 131.869 37.3549 132.844 39.2348L175.205 121.006L245.786 78.4849C247.7 77.3328 250.105 77.4199 251.929 78.7069C253.753 79.9938 254.641 82.2362 254.197 84.4224L227.549 215.014C227.01 217.63 224.708 219.51 222.039 219.51Z" fill="#FDC71C"/>
</svg>
