<svg width="160" height="200" viewBox="0 0 160 200" fill="none" xmlns="http://www.w3.org/2000/svg">
<rect width="160" height="200" fill="#F2F2F2"/>
<path d="M80 50L36.75 75V125L80 150L123.25 125V75L80 50ZM116.043 120.832L80 141.668L43.9575 120.832V79.1675L80 58.3325L116.043 79.165V120.832Z" fill="#333333" fill-opacity="0.5"/>
<path d="M51.1675 83.3526V116.648L58.375 120.718V104.14L80 91.6826V66.7051L51.1675 83.3526ZM58.3825 95.9176V87.5201L72.7925 79.1976V87.5226L58.3825 95.9176Z" fill="#D1363A" fill-opacity="0.5"/>
<path d="M87.2075 70.8677V95.9402L87.1675 95.9177L65.5825 108.358V124.963L72.7925 129.133V112.545L94.4175 100.06V75.0302L87.2075 70.8677Z" fill="#333333" fill-opacity="0.5"/>
<path d="M79.9997 133.295L108.832 116.647V83.3573L101.625 79.1948V112.527L79.9922 124.962L79.9997 133.295Z" fill="#333333" fill-opacity="0.5"/>
</svg>
