<svg width="24" height="24" viewBox="0 0 24 24" fill="none" xmlns="http://www.w3.org/2000/svg">
<path d="M12.0011 0L1.62109 6V18L12.0011 24L22.3811 18V6L12.0011 0ZM20.6513 16.9998L12.0011 22.0002L3.35089 16.9998V7.0002L12.0011 1.9998L20.6513 6.9996V16.9998Z" fill="#333333"/>
<path d="M5.08008 8.00468V15.9955L6.80988 16.9723V12.9937L11.9999 10.0039V4.00928L5.08008 8.00468ZM6.81168 11.0203V9.00488L10.2701 7.00748V9.00548L6.81168 11.0203Z" fill="#D1363A"/>
<path d="M13.7291 5.0083V11.0257L13.7195 11.0203L8.53906 14.0059V17.9911L10.2695 18.9919V15.0109L15.4595 12.0145V6.0073L13.7291 5.0083Z" fill="#333333"/>
<path d="M11.9998 19.9908L18.9196 15.9954V8.00584L17.1898 7.00684V15.0066L11.998 17.991L11.9998 19.9908Z" fill="#333333"/>
</svg>
