<svg width="350" height="56" viewBox="0 0 350 56" fill="none" xmlns="http://www.w3.org/2000/svg">
<rect x="0.5" y="0.5" width="349" height="55" rx="9.5" fill="#F7F9FA" stroke="#D1363A"/>
<path d="M60.3686 27.3002C60.3686 26.5722 60.2986 25.8722 60.1686 25.2002H49.8086V29.1762H55.7286C55.4686 30.4549 54.6886 31.5375 53.5186 32.2655V34.8509H57.0886C59.1686 33.0589 60.3686 30.4269 60.3686 27.3002Z" fill="#4285F4"/>
<path d="M49.8083 37.334C52.7783 37.334 55.2683 36.4193 57.0883 34.8513L53.5183 32.266C52.5383 32.882 51.2883 33.2553 49.8083 33.2553C46.9483 33.2553 44.5183 31.454 43.6483 29.0273H39.9883V31.678C41.7983 35.0287 45.5083 37.334 49.8083 37.334Z" fill="#34A853"/>
<path d="M43.6486 29.0178C43.4286 28.4018 43.2986 27.7485 43.2986 27.0672C43.2986 26.3858 43.4286 25.7325 43.6486 25.1165V22.4658H39.9886C39.2386 23.8472 38.8086 25.4058 38.8086 27.0672C38.8086 28.7285 39.2386 30.2872 39.9886 31.6685L42.8386 29.5965L43.6486 29.0178Z" fill="#FBBC05"/>
<path d="M49.8083 20.8888C51.4283 20.8888 52.8683 21.4114 54.0183 22.4195L57.1683 19.4794C55.2583 17.8181 52.7783 16.8008 49.8083 16.8008C45.5083 16.8008 41.7983 19.1061 39.9883 22.4661L43.6483 25.1168C44.5183 22.6901 46.9483 20.8888 49.8083 20.8888Z" fill="#EA4335"/>
<path d="M139.247 21.6719C139.247 22.6914 139.22 23.5938 139.167 24.3789C139.121 25.1582 139 26.043 138.807 27.0332H141.075V28.4043H134.694V35.0664H133.006V28.4043H126.713V27.0332H137.12C137.325 26.043 137.454 25.1611 137.506 24.3877C137.559 23.6143 137.588 22.709 137.594 21.6719V21.6543H128.471V20.2832H139.247V21.6719ZM154.856 21.0039V21.4521C154.856 22.0557 154.832 22.6475 154.786 23.2275C154.745 23.8018 154.657 24.4199 154.522 25.082H156.684V26.418H142.27V25.082H152.843C152.99 24.3672 153.086 23.7139 153.133 23.1221C153.18 22.5303 153.204 21.9238 153.204 21.3027H144.081V19.9668H154.856V21.0039ZM143.957 27.8242H154.874V31.9551H145.645V33.5547H155.278V34.8906H143.975V30.6719H153.221V29.1602H143.957V27.8242ZM172.241 33.168H157.827V31.7617H164.172V29.002H159.584V23.9922H168.831V21.7773H159.549V20.4062H170.483V25.3281H161.237V27.6309H170.852V29.002H165.825V31.7617H172.241V33.168ZM192.192 33.168H177.778V31.7617H184.124V29.002H179.536V23.9922H188.782V21.7773H179.5V20.4062H190.434V25.3281H181.188V27.6309H190.803V29.002H185.776V31.7617H192.192V33.168ZM205.815 22.5859C205.815 23.5059 205.803 24.3027 205.78 24.9766C205.762 25.6445 205.712 26.4209 205.63 27.3057C205.548 28.1904 205.416 29.1543 205.235 30.1973L203.53 30.0391C203.723 29.0605 203.867 28.1377 203.96 27.2705C204.054 26.4033 204.11 25.6328 204.127 24.959C204.151 24.2852 204.163 23.4941 204.163 22.5859V22.2695H194.881V20.8984H205.815V22.5859ZM193.334 31.4277H207.696V32.8164H193.334V31.4277ZM221.952 30.7598H220.282V19.3164H221.952V30.7598ZM209.207 24.2734C209.207 23.5293 209.392 22.8613 209.761 22.2695C210.13 21.6777 210.634 21.2148 211.273 20.8809C211.912 20.541 212.624 20.3711 213.409 20.3711C214.194 20.3711 214.903 20.541 215.536 20.8809C216.174 21.2148 216.675 21.6777 217.039 22.2695C217.408 22.8613 217.592 23.5293 217.592 24.2734C217.592 25.0293 217.408 25.7061 217.039 26.3037C216.675 26.8955 216.174 27.3584 215.536 27.6924C214.903 28.0264 214.194 28.1934 213.409 28.1934C212.624 28.1934 211.912 28.0264 211.273 27.6924C210.634 27.3584 210.13 26.8955 209.761 26.3037C209.392 25.7061 209.207 25.0293 209.207 24.2734ZM210.842 24.2734C210.842 24.7598 210.951 25.1904 211.167 25.5654C211.39 25.9346 211.698 26.2217 212.09 26.4268C212.483 26.6318 212.922 26.7344 213.409 26.7344C213.889 26.7344 214.323 26.6318 214.709 26.4268C215.096 26.2217 215.401 25.9346 215.624 25.5654C215.846 25.1904 215.957 24.7598 215.957 24.2734C215.957 23.7988 215.846 23.377 215.624 23.0078C215.401 22.6328 215.096 22.3428 214.709 22.1377C214.323 21.9326 213.889 21.8301 213.409 21.8301C212.922 21.8301 212.483 21.9326 212.09 22.1377C211.698 22.3428 211.39 22.6328 211.167 23.0078C210.951 23.377 210.842 23.7988 210.842 24.2734ZM211.651 29.5996H213.338V33.3613H222.426V34.7148H211.651V29.5996Z" fill="#333333"/>
</svg>
