<svg width="134" height="24" viewBox="0 0 134 24" fill="none" xmlns="http://www.w3.org/2000/svg">
<path d="M12.0001 0L1.62012 6V18L12.0001 24L22.3801 18V6L12.0001 0ZM20.6503 16.9998L12.0001 22.0002L3.34992 16.9998V7.0002L12.0001 1.9998L20.6503 6.9996V16.9998Z" fill="white"/>
<path d="M5.08008 8.00468V15.9955L6.80988 16.9723V12.9937L11.9999 10.0039V4.00928L5.08008 8.00468ZM6.81168 11.0203V9.00488L10.2701 7.00748V9.00548L6.81168 11.0203Z" fill="white"/>
<path d="M13.73 5.0083V11.0257L13.7204 11.0203L8.54004 14.0059V17.9911L10.2704 18.9919V15.0109L15.4604 12.0145V6.0073L13.73 5.0083Z" fill="white"/>
<path d="M11.9998 19.9908L18.9196 15.9954V8.00584L17.1898 7.00684V15.0066L11.998 17.991L11.9998 19.9908Z" fill="white"/>
<path d="M31.44 4H37.7C39.1 4 40.3 4.24667 41.3 4.74C42.3133 5.23333 43.0867 5.92667 43.62 6.82C44.1533 7.71333 44.42 8.76 44.42 9.96C44.42 11.1733 44.1533 12.2333 43.62 13.14C43.0867 14.0333 42.3133 14.7267 41.3 15.22C40.3 15.7133 39.1 15.96 37.7 15.96H35.08V20.3H31.44V4ZM37.54 12.74C38.5667 12.74 39.36 12.5 39.92 12.02C40.4933 11.54 40.78 10.8533 40.78 9.96C40.78 9.06667 40.4933 8.38667 39.92 7.92C39.36 7.45333 38.5667 7.22 37.54 7.22H35.08V12.74H37.54ZM48.0614 2.92C48.6881 2.92 49.2081 3.12667 49.6214 3.54C50.0347 3.95333 50.2414 4.47333 50.2414 5.1C50.2414 5.72667 50.0347 6.24667 49.6214 6.66C49.2081 7.07333 48.6881 7.28 48.0614 7.28C47.4347 7.28 46.9147 7.07333 46.5014 6.66C46.0881 6.24667 45.8814 5.72667 45.8814 5.1C45.8814 4.47333 46.0881 3.95333 46.5014 3.54C46.9147 3.12667 47.4347 2.92 48.0614 2.92ZM49.8414 20.34H46.2814V8.58H49.8414V20.34ZM63.9719 16.08C63.6652 17.44 62.9852 18.5267 61.9319 19.34C60.8785 20.1667 59.6119 20.58 58.1319 20.58C56.9452 20.58 55.8785 20.3133 54.9319 19.78C53.9852 19.26 53.2452 18.5333 52.7119 17.6C52.1785 16.6667 51.9119 15.6133 51.9119 14.44C51.9119 13.2667 52.1785 12.2133 52.7119 11.28C53.2452 10.3467 53.9852 9.62 54.9319 9.1C55.8785 8.56667 56.9452 8.3 58.1319 8.3C59.1319 8.3 60.0452 8.5 60.8719 8.9C61.6985 9.28667 62.3785 9.82 62.9119 10.5C63.4452 11.18 63.7785 11.9333 63.9119 12.76H60.3119C60.1652 12.3467 59.8985 12.02 59.5119 11.78C59.1385 11.5267 58.6785 11.4 58.1319 11.4C57.3052 11.4 56.6385 11.6867 56.1319 12.26C55.6385 12.82 55.3919 13.5467 55.3919 14.44C55.3919 15.3333 55.6385 16.0667 56.1319 16.64C56.6385 17.2 57.3052 17.48 58.1319 17.48C58.6785 17.48 59.1452 17.3533 59.5319 17.1C59.9319 16.8467 60.2119 16.5067 60.3719 16.08H63.9719ZM70.8708 16L69.4508 17.6V20.3H65.8908V3.5H69.4508V13.36L73.5908 8.58H77.5508L73.0508 13.58L77.7908 20.3H73.7308L70.8708 16ZM84.8386 19.604L84.4426 19.136C83.6826 19.592 82.8666 19.82 81.9946 19.82C81.2506 19.82 80.6026 19.7 80.0506 19.46C79.4986 19.22 79.0746 18.888 78.7786 18.464C78.4906 18.032 78.3466 17.536 78.3466 16.976C78.3466 16.352 78.5186 15.816 78.8626 15.368C79.2146 14.912 79.7026 14.52 80.3266 14.192C80.0546 13.832 79.8426 13.484 79.6906 13.148C79.5466 12.812 79.4746 12.46 79.4746 12.092C79.4746 11.596 79.6066 11.156 79.8706 10.772C80.1426 10.38 80.5146 10.076 80.9866 9.86C81.4586 9.644 81.9826 9.536 82.5586 9.536C83.1426 9.536 83.6586 9.64 84.1066 9.848C84.5626 10.048 84.9146 10.332 85.1626 10.7C85.4186 11.068 85.5466 11.484 85.5466 11.948C85.5466 12.564 85.3586 13.092 84.9826 13.532C84.6066 13.972 84.0826 14.368 83.4106 14.72L84.6706 16.208C84.8786 15.768 85.0186 15.304 85.0906 14.816H87.0106C86.9066 15.904 86.5506 16.872 85.9426 17.72L87.5266 19.604H84.8386ZM82.5706 11.06C82.2906 11.06 82.0546 11.152 81.8626 11.336C81.6786 11.52 81.5866 11.752 81.5866 12.032C81.5866 12.248 81.6426 12.456 81.7546 12.656C81.8666 12.848 82.0386 13.088 82.2706 13.376C82.6546 13.2 82.9506 13.008 83.1586 12.8C83.3746 12.584 83.4826 12.332 83.4826 12.044C83.4826 11.756 83.3946 11.52 83.2186 11.336C83.0506 11.152 82.8346 11.06 82.5706 11.06ZM82.1386 18.092C82.5466 18.092 82.9386 17.988 83.3146 17.78L81.4906 15.608C81.1546 15.784 80.9026 15.972 80.7346 16.172C80.5746 16.364 80.4946 16.596 80.4946 16.868C80.4946 17.228 80.6426 17.524 80.9386 17.756C81.2346 17.98 81.6346 18.092 82.1386 18.092ZM92.8964 4V17.08H101.036V20.3H89.2564V4H92.8964ZM110.618 20.7C108.951 20.7 107.444 20.3267 106.098 19.58C104.764 18.8467 103.718 17.8333 102.958 16.54C102.198 15.2333 101.818 13.7667 101.818 12.14C101.818 10.5133 102.198 9.05333 102.958 7.76C103.718 6.45333 104.764 5.43333 106.098 4.7C107.444 3.95333 108.951 3.58 110.618 3.58C112.284 3.58 113.784 3.95333 115.118 4.7C116.464 5.43333 117.518 6.45333 118.278 7.76C119.038 9.05333 119.418 10.5133 119.418 12.14C119.418 13.7667 119.038 15.2333 118.278 16.54C117.518 17.8333 116.464 18.8467 115.118 19.58C113.784 20.3267 112.284 20.7 110.618 20.7ZM110.618 17.42C111.591 17.42 112.471 17.1933 113.258 16.74C114.044 16.2867 114.658 15.66 115.098 14.86C115.551 14.0467 115.778 13.14 115.778 12.14C115.778 11.1267 115.551 10.22 115.098 9.42C114.658 8.62 114.044 7.99333 113.258 7.54C112.471 7.08667 111.591 6.86 110.618 6.86C109.644 6.86 108.764 7.08667 107.978 7.54C107.191 7.99333 106.571 8.62 106.118 9.42C105.678 10.22 105.458 11.1267 105.458 12.14C105.458 13.14 105.678 14.0467 106.118 14.86C106.571 15.66 107.191 16.2867 107.978 16.74C108.764 17.1933 109.644 17.42 110.618 17.42ZM125.221 4V17.08H133.361V20.3H121.581V4H125.221Z" fill="white"/>
</svg>
