<svg width="69" height="68" viewBox="0 0 69 68" fill="none" xmlns="http://www.w3.org/2000/svg">
<path d="M34.4998 0L5.08984 17V51L34.4998 68L63.9098 51V17L34.4998 0ZM59.0087 48.1661L34.4998 62.3339L9.99094 48.1661V19.8339L34.4998 5.6661L59.0087 19.8322V48.1661Z" fill="white"/>
<path d="M14.8936 22.6797V45.3203L19.7947 48.0879V36.8152L34.4997 28.3441V11.3594L14.8936 22.6797ZM19.7998 31.2239V25.5136L29.5986 19.8543V25.5153L19.7998 31.2239Z" fill="white"/>
<path d="M39.4023 14.1904V31.2397L39.3751 31.2244L24.6973 39.6836V50.975L29.6001 53.8106V42.5311L44.3051 34.0413V17.0209L39.4023 14.1904Z" fill="white"/>
<path d="M34.4992 56.6405L54.1053 45.3202V22.683L49.2042 19.8525V42.5186L34.4941 50.9744L34.4992 56.6405Z" fill="white"/>
</svg>
