<svg width="324" height="373" viewBox="0 0 324 373" fill="none" xmlns="http://www.w3.org/2000/svg">
<path fill-rule="evenodd" clip-rule="evenodd" d="M0 93.1579L161.626 0L323.253 93.1579V279.474L161.626 372.632L0 279.474V93.1579ZM161.626 341.582L296.318 263.944V108.678L161.626 31.0495L26.9346 108.687V263.944L161.626 341.582ZM53.8629 248.349V124.282L161.611 62.2478V155.322L80.7975 201.743V263.516L53.8629 248.349ZM80.8256 139.811V171.103L134.676 139.82V108.799L80.8256 139.811ZM188.532 77.7593V171.187L188.382 171.104L107.719 217.459V279.334L134.663 294.873V233.063L215.476 186.54V93.2701L188.532 77.7593ZM269.354 248.35L161.606 310.384L161.578 279.334L242.419 232.998V108.79L269.354 124.301V248.35Z" fill="#FDF5F5"/>
</svg>
