<svg width="48" height="48" viewBox="0 0 48 48" fill="none" xmlns="http://www.w3.org/2000/svg">
<circle cx="24" cy="24" r="24" fill="#F7F9FA"/>
<path d="M24 8L10.16 16V32L24 40L37.84 32V16L24 8ZM35.5336 30.6664L24 37.3336L12.4664 30.6664V17.3336L24 10.6664L35.5336 17.3328V30.6664Z" fill="#333333" fill-opacity="0.5"/>
<path d="M14.7736 18.6724V29.3268L17.08 30.6292V25.3244L24 21.338V13.3452L14.7736 18.6724ZM17.0824 22.6932V20.006L21.6936 17.3428V20.0068L17.0824 22.6932Z" fill="#D1363A" fill-opacity="0.5"/>
<path d="M26.3065 14.6772V22.7004L26.2937 22.6932L19.3865 26.674V31.9876L21.6937 33.322V28.014L28.6137 24.0188V16.0092L26.3065 14.6772Z" fill="#333333" fill-opacity="0.5"/>
<path d="M24.0001 34.6548L33.2265 29.3276V18.6748L30.9201 17.3428V28.0092L23.9977 31.9884L24.0001 34.6548Z" fill="#333333" fill-opacity="0.5"/>
</svg>
